<svg viewBox="0 0 94.4 78.2" xmlns="http://www.w3.org/2000/svg" xmlns:xlink="http://www.w3.org/1999/xlink" id="Ebene_1" xml:space="preserve" overflow="hidden"><path d="M-5.9 35.9-5.9 35.9-5.8 35.9Z" fill="#FFFFFF"/><path d="M52.7 24 52.7 24 0 24 0 78 53.3 78 67.5 78.2 94.4 62.6 94.4 0 52.7 24ZM28.1 32.2C29.8 32.2 31.2 33.6 31.2 35.3 31.2 37 29.8 38.4 28.1 38.4 26.4 38.4 25 37.1 25 35.3 25 33.6 26.4 32.2 28.1 32.2ZM37.6 69.8 18.7 69.8 18.7 66.7 26.5 66.7 26.5 44.7 18.7 44.7 18.7 41.6 23.4 41.6C26.9 41.6 29.7 44.4 29.7 47.9L29.7 66.7 37.5 66.7 37.5 69.8Z" fill="#FF0350"/></svg>