<svg viewBox="0 0 226.77 113.39" xmlns="http://www.w3.org/2000/svg" xmlns:xlink="http://www.w3.org/1999/xlink" id="Ebene_1" overflow="hidden"><defs></defs><path d="M119.31 30.35 113.39 36.27 113 35.88C109.49 32.35 104.72 30.36 99.74 30.36L68.54 30.36 68.54 97.62 104.41 97.62 113.37 106.65 122.4 97.62 158.22 97.62 158.22 30.35 119.31 30.35ZM150.75 90.14 119.31 90.14 113.39 96.06 113 95.67C109.49 92.14 104.72 90.15 99.74 90.15L76.01 90.15 76.01 37.84 104.4 37.84 109.64 43.12 109.64 86.42 117.11 86.42 117.11 43.13 122.39 37.85 150.74 37.85 150.74 90.16ZM83.49 60.25 102.17 60.25 102.17 67.72 83.49 67.72 83.49 60.25ZM102.17 52.78 83.49 52.78 83.49 45.31 94.7 45.31C98.83 45.31 102.17 48.66 102.17 52.78Z" stroke-width="0" fill="#FF0350"/></svg>