<svg viewBox="0 0 226.77 113.39" xmlns="http://www.w3.org/2000/svg" xmlns:xlink="http://www.w3.org/1999/xlink" id="Ebene_1" overflow="hidden"><defs></defs><path d="M120.88 15.23 120.88 28.31 112.62 36.59 117.89 41.87 122.88 36.91C126.39 33.39 128.37 28.63 128.37 23.67L128.37 18.31 133.69 13.01 128.37 7.71 121.22 14.89 120.88 15.23Z" stroke-width="0" fill="#FF0350"/><path d="M120.88 97.27 90.91 97.27C82.64 97.27 75.93 90.56 75.93 82.29L75.93 44.84 92.78 44.84 92.78 43.54C92.78 38.58 94.76 33.82 98.27 30.3L109.8 18.78 115.08 24.06 100.27 38.89 100.27 44.83 135.85 44.83 135.85 48.58C144.13 48.58 150.84 55.28 150.84 63.56 150.84 67.19 149.37 70.45 147 72.83 144.62 75.21 141.37 76.67 137.73 76.67L135.86 76.67 135.86 82.29C135.86 90.57 129.16 97.27 120.88 97.27ZM143.35 69.18 143.35 56.07 135.86 56.07 135.86 69.18 143.35 69.18ZM128.37 52.33 83.42 52.33 83.42 89.78 128.37 89.78 128.37 52.33Z" stroke-width="0" fill="#FF0350" fill-rule="evenodd"/></svg>