<svg viewBox="0 0 226.77 113.39" xmlns="http://www.w3.org/2000/svg" xmlns:xlink="http://www.w3.org/1999/xlink" id="Ebene_1" overflow="hidden"><defs></defs><circle cx="113.84" cy="32.4" r="7.47" stroke-width="0" fill="#FF0350"/><rect x="104.75" y="89.84" width="17.28" height="7.47" stroke-width="0" fill="#FF0350"/><path d="M113.39 84.4 90.45 41.98C88.51 38.15 88.51 34.76 88.51 32.52 88.51 18.68 99.67 7.52 113.39 7.52 127.11 7.52 138.27 18.68 138.27 32.4 138.27 34.77 138.27 38.17 136.38 41.9L113.4 84.41ZM113.39 14.99C103.79 14.99 95.99 22.8 95.99 32.39 95.99 34.32 95.99 36.37 97.08 38.51L113.4 68.68 129.76 38.42C130.8 36.37 130.8 34.32 130.8 32.52 130.8 22.79 122.99 14.98 113.4 14.98Z" stroke-width="0" fill="#FF0350"/></svg>