<svg viewBox="0 0 226.77 113.39" xmlns="http://www.w3.org/2000/svg" xmlns:xlink="http://www.w3.org/1999/xlink" id="Ebene_1" overflow="hidden"><defs></defs><path d="M90.97 22.88C86.84 22.88 83.5 19.53 83.5 15.41 83.5 11.29 86.85 7.94 90.97 7.94 95.09 7.94 98.44 11.29 98.44 15.41 98.44 19.53 95.09 22.88 90.97 22.88ZM143.28 15.41C143.28 11.28 139.93 7.94 135.81 7.94 131.69 7.94 128.34 11.29 128.34 15.41 128.34 19.53 131.69 22.88 135.81 22.88 139.93 22.88 143.28 19.53 143.28 15.41ZM87.23 76.75C87.23 69.98 84.54 63.49 79.76 58.71L79.76 58.71 79.76 37.84 102.18 37.84 102.18 67.73 109.65 67.73 109.65 45.31C109.65 37.06 102.96 30.36 94.7 30.36L87.23 30.36C78.98 30.36 72.28 37.05 72.28 45.31L72.28 61.8 79.75 69.27 79.75 97.62 87.22 97.62 87.22 76.75ZM102.18 67.73 94.71 67.73 94.71 97.62 102.18 97.62 102.18 67.73ZM147.02 71.47 147.02 71.47C151.15 71.47 154.49 68.12 154.49 64L154.49 30.35 132.07 30.35C123.82 30.35 117.12 37.04 117.12 45.3L117.12 67.72 124.59 67.72 124.59 37.83 147.01 37.83 147.01 63.99 139.54 63.99 139.54 90.15 132.07 90.15 132.07 75.2C132.07 71.07 128.72 67.73 124.6 67.73L124.6 67.73 124.6 82.68C124.6 90.93 131.29 97.63 139.55 97.63L147.02 97.63 147.02 71.47Z" stroke-width="0" fill="#FF0350"/></svg>