<svg viewBox="0 0 226.8 113.4" xmlns="http://www.w3.org/2000/svg" xmlns:xlink="http://www.w3.org/1999/xlink" id="Ebene_1" xml:space="preserve" overflow="hidden"><g><defs><rect x="63.8" y="7.1" width="99.2" height="99.2" id="SVGID_1_"/></defs><clipPath id="SVGID_00000101796562605843098280000017887386285433783185_"><use width="100%" height="100%" xlink:href="#SVGID_1_" overflow="visible"></use></clipPath><path d="M125.8 81.5 117.5 81.5 117.5 89.8 125.8 89.8 125.8 81.5ZM101 81.5 109.3 81.5 109.3 89.8 101 89.8 101 81.5ZM92.7 81.5 84.4 81.5 84.4 89.8 92.7 89.8 92.7 81.5ZM134.1 65 142.4 65 142.4 73.3 134.1 73.3 134.1 65ZM125.8 65 117.5 65 117.5 73.3 125.8 73.3 125.8 65ZM101 65 109.3 65 109.3 73.3 101 73.3 101 65ZM92.7 65 84.4 65 84.4 73.3 92.7 73.3 92.7 65ZM134.1 48.4 142.4 48.4 142.4 56.7 134.1 56.7 134.1 48.4ZM125.8 48.4 117.5 48.4 117.5 56.7 125.8 56.7 125.8 48.4ZM109.3 48.4 101 48.4 101 56.7 109.3 56.7 109.3 48.4ZM154.7 31.9 72 31.9 72 23.6 154.7 23.6 154.7 31.9ZM72 40.2 154.7 40.2 154.7 98 72 98 72 40.2ZM84.4 7.1 92.7 7.1 92.7 15.4 134 15.4 134 7.1 142.3 7.1 142.3 15.4 146.4 15.4C155.5 15.4 162.9 22.8 162.9 31.9L162.9 40.2 162.9 89.8C162.9 98.9 155.5 106.3 146.4 106.3L80.3 106.3C71.2 106.3 63.8 98.9 63.8 89.8L63.8 40.2 63.8 31.9 63.8 15.4 84.5 15.4 84.5 7.1Z" fill="#FF0350" fill-rule="evenodd" clip-rule="evenodd" clip-path="url(#SVGID_00000101796562605843098280000017887386285433783185_)"/></g></svg>