<svg viewBox="0 0 226.77 113.39" xmlns="http://www.w3.org/2000/svg" xmlns:xlink="http://www.w3.org/1999/xlink" id="Ebene_1" overflow="hidden"><defs></defs><rect x="150.47" y="76.24" width="7.49" height="14.97" stroke-width="0" fill="#FF0350"/><path d="M142.99 40.23 142.99 40.23 142.99 40.23 142.99 40.23Z" stroke-width="0" fill="#FF0350"/><path d="M153.07 30.03 121.73 14.78C116.97 12.47 109.78 12.47 105.02 14.78L73.69 30.03C70.59 31.54 68.81 33.95 68.81 36.66 68.81 39.37 70.59 41.78 73.69 43.28L83.82 48.19 83.82 69.39C83.82 78.07 96.54 84.61 113.4 84.61 127.74 84.61 142.98 79.28 142.98 69.39L142.98 40.23 113.4 54.28 77.16 36.65 113.4 19.02 150.47 36.65 150.47 68.75 157.94 68.75 157.94 36.65C157.94 33.94 156.16 31.53 153.06 30.02ZM135.51 51.81 135.51 69.39C135.51 72.12 127.12 77.14 113.4 77.14 99.68 77.14 91.29 72.12 91.29 69.39L91.29 51.82 113.4 62.55 135.51 51.81Z" stroke-width="0" fill="#FF0350"/></svg>