<svg viewBox="0 0 226.77 113.39" xmlns="http://www.w3.org/2000/svg" xmlns:xlink="http://www.w3.org/1999/xlink" id="Ebene_1" overflow="hidden"><defs></defs><path d="M143.28 15.21 139.54 15.21 139.54 7.74 132.07 7.74 132.07 15.21 94.7 15.21 94.7 7.74 87.23 7.74 87.23 15.21 68.55 15.21 68.55 82.47C68.55 90.72 75.24 97.42 83.5 97.42L143.29 97.42C151.54 97.42 158.24 90.73 158.24 82.47L158.24 30.16C158.24 21.91 151.55 15.21 143.29 15.21ZM76.02 22.68 150.75 22.68 150.75 30.15 76.02 30.15 76.02 22.68ZM150.75 89.94 76.02 89.94 76.02 37.63 150.75 37.63 150.75 89.94ZM109.65 52.57 102.18 52.57 102.18 45.1 109.65 45.1 109.65 52.57ZM124.6 52.57 117.13 52.57 117.13 45.1 124.6 45.1 124.6 52.57ZM139.55 52.57 132.08 52.57 132.08 45.1 139.55 45.1 139.55 52.57ZM94.71 67.52 87.24 67.52 87.24 60.05 94.71 60.05 94.71 67.52ZM109.66 67.52 102.19 67.52 102.19 60.05 109.66 60.05 109.66 67.52ZM124.61 67.52 117.14 67.52 117.14 60.05 124.61 60.05 124.61 67.52ZM139.56 67.52 132.09 67.52 132.09 60.05 139.56 60.05 139.56 67.52ZM87.25 82.47 87.25 75 94.72 75 94.72 82.47 87.25 82.47ZM109.67 82.47 102.2 82.47 102.2 75 109.67 75 109.67 82.47ZM124.62 82.47 117.15 82.47 117.15 75 124.62 75 124.62 82.47Z" stroke-width="0" fill="#FF0350"/></svg>