<svg viewBox="0 0 226.8 113.4" xmlns="http://www.w3.org/2000/svg" xmlns:xlink="http://www.w3.org/1999/xlink" id="Ebene_1" xml:space="preserve" overflow="hidden"><g><defs><rect x="63.8" y="7.9" width="99.2" height="97.5" id="SVGID_1_"/></defs><clipPath id="SVGID_00000055684487363595245830000001882259573885572013_"><use width="100%" height="100%" xlink:href="#SVGID_1_" overflow="visible"></use></clipPath><path d="M106.1 26.2C106.1 21.7 109.7 18.1 114.2 18.1 118.7 18.1 122.3 21.7 122.3 26.2 122.3 30.7 118.7 34.3 114.2 34.3 109.8 34.3 106.1 30.7 106.1 26.2M98 26.2C98 35.2 105.3 42.5 114.3 42.5 123.3 42.5 130.6 35.2 130.6 26.2 130.6 17.2 123.2 10 114.2 10 105.3 10 98 17.3 98 26.2" fill="#FF0350" fill-rule="evenodd" clip-rule="evenodd" clip-path="url(#SVGID_00000055684487363595245830000001882259573885572013_)"/><path d="M63.8 79 89.9 105.1 89.9 105.1 103.8 91.2 124.5 91.2C132 91.2 139.3 88.2 144.6 82.9L163 64.5 163 53.1C163 44 152 39.5 145.6 45.9L124.7 66.8 106.1 66.8 106.1 75 128.1 75 154.9 48.2 154.9 61.1 132.9 83.1 100.4 83.1 89.9 93.6 75.3 79 95.6 58.7 122.4 58.7 122.4 50.6 104 50.6C96.5 50.6 89.2 53.6 83.9 58.9L63.8 79Z" fill="#FF0350" clip-path="url(#SVGID_00000055684487363595245830000001882259573885572013_)"/></g></svg>