<svg viewBox="0 0 226.8 113.4" xmlns="http://www.w3.org/2000/svg" xmlns:xlink="http://www.w3.org/1999/xlink" id="Ebene_1" xml:space="preserve" overflow="hidden"><g><defs><rect x="63.8" y="7.1" width="99.2" height="99.2" id="SVGID_1_"/></defs><clipPath id="SVGID_00000010295007190644038130000011902319661267804299_"><use width="100%" height="100%" xlink:href="#SVGID_1_" overflow="visible"></use></clipPath><path d="M146.5 40.2 154.8 40.2 154.8 23.6 146.5 23.6 146.5 40.2ZM80.3 23.6 72 23.6 72 40.1 80.2 40.1 80.2 23.6ZM113.4 98 113.4 79.4C113.4 71.7 116.4 64.4 121.9 58.9L138.2 42.6 138.2 15.4 88.6 15.4 88.6 42.6 110.1 64.1 104.3 69.9 82.7 48.4 80.3 48.4C71.2 48.4 63.8 41 63.8 31.9L63.8 15.4 82.5 15.4C85.4 10.5 90.7 7.1 96.8 7.1L146.4 7.1 146.4 15.4C155.5 15.4 162.9 22.8 162.9 31.9L162.9 48.4 143.9 48.4 121.5 70.8 121.5 98 138 98 138 106.3 88.6 106.3 88.6 98 113.4 98Z" fill="#FF0350" fill-rule="evenodd" clip-rule="evenodd" clip-path="url(#SVGID_00000010295007190644038130000011902319661267804299_)"/></g></svg>